# xmcd
#
# Track frame offsets: 
#        150
#        19500
#        37950
#        55650
#
# Disc length: 1000 seconds
#
# Revision: 2
# Processed by: cddbd v1.5.2PL0 Copyright (c) Steve Scherf et al.
# Submitted via: ExactAudioCopy v1.3
#
DISCID=2203e604
DTITLE=Robert Cray - Right Next Door (Because Of Me) [CDv)
DYEAR=1988
DGENRE=Blues
TTITLE0=Right Next Door (Because Of Me)
TTITLE1=Foul Play
TTITLE2=I Wonder
TTITLE3=New Blood
EXTD=
EXTT0=
EXTT1=
EXTT2=
EXTT3=
PLAYORDER=
